# WaveFront *.obj file (generated by Autodesk ATF)

mtllib table.mtl

g tabletop

v 0.762000 2.032000 0.000000
v 0.000000 2.032000 0.000000
v 0.000000 0.000000 0.000000
v 0.762000 0.000000 0.000000
v 0.000000 2.032000 -0.038100
v 0.762000 2.032000 -0.038100
v 0.762000 0.000000 -0.038100
v 0.000000 0.000000 -0.038100
vt 101.600000 38.100000 0.000000
vt -101.600000 38.100000 0.000000
vt 101.600000 -38.100000 0.000000
vt -101.600000 -38.100000 0.000000
vt -101.600000 -38.100000 0.000000
vt 101.600000 -38.100000 0.000000
vt -101.600000 38.100000 0.000000
vt 101.600000 38.100000 0.000000
vt -1.905000 -101.600000 0.000000
vt 1.905000 -101.600000 0.000000
vt -1.905000 101.600000 0.000000
vt 1.905000 101.600000 0.000000
vt 1.905000 38.100000 0.000000
vt -1.905000 38.100000 0.000000
vt 1.905000 -38.100000 0.000000
vt -1.905000 -38.100000 0.000000
vt 1.905000 101.600000 0.000000
vt -1.905000 101.600000 0.000000
vt 1.905000 -101.600000 0.000000
vt -1.905000 -101.600000 0.000000
vt -1.905000 -38.100000 0.000000
vt 1.905000 -38.100000 0.000000
vt -1.905000 38.100000 0.000000
vt 1.905000 38.100000 0.000000
vn 0.000000 0.000000 100.000000
vn 0.000000 0.000000 100.000000
vn 0.000000 0.000000 100.000000
vn 0.000000 0.000000 100.000000
vn 0.000000 0.000000 -100.000000
vn 0.000000 0.000000 -100.000000
vn 0.000000 0.000000 -100.000000
vn 0.000000 0.000000 -100.000000
vn 100.000000 0.000000 0.000000
vn 100.000000 0.000000 0.000000
vn 100.000000 0.000000 0.000000
vn 100.000000 0.000000 0.000000
vn 0.000000 -100.000000 0.000000
vn 0.000000 -100.000000 0.000000
vn 0.000000 -100.000000 0.000000
vn 0.000000 -100.000000 0.000000
vn -100.000000 0.000000 0.000000
vn -100.000000 0.000000 0.000000
vn -100.000000 0.000000 0.000000
vn -100.000000 0.000000 0.000000
vn -0.000000 100.000000 -0.000000
vn -0.000000 100.000000 -0.000000
vn -0.000000 100.000000 -0.000000
vn -0.000000 100.000000 -0.000000
usemtl Base_Material_-_Opaque_-_wood_brown
f 2/1/1 3/2/2 1/3/3
f 1/3/3 3/2/2 4/4/4
f 6/5/5 7/6/6 5/7/7
f 5/7/7 7/6/6 8/8/8
f 4/9/9 7/10/10 1/11/11
f 1/11/11 7/10/10 6/12/12
f 3/13/13 8/14/14 4/15/15
f 4/15/15 8/14/14 7/16/16
f 2/17/17 5/18/18 3/19/19
f 3/19/19 5/18/18 8/20/20
f 1/21/21 6/22/22 2/23/23
f 2/23/23 6/22/22 5/24/24
g leg_right

v 0.050800 0.000000 -0.647700
v 0.393700 0.000000 -0.647700
v 0.393700 0.050800 -0.647700
v 0.050800 0.050800 -0.647700
v 0.050800 0.000000 -0.673100
v 0.050800 0.050800 -0.673100
v 0.736600 0.000000 -0.673100
v 0.736600 0.050800 -0.673100
v 0.736600 0.000000 -0.647700
v 0.736600 0.050800 -0.647700
v 0.469900 0.000000 -0.647700
v 0.469900 0.050800 -0.647700
v 0.469900 0.000000 -0.038100
v 0.469900 0.050800 -0.038100
v 0.393700 0.000000 -0.038100
v 0.393700 0.050800 -0.038100
vt 0.000000 0.000000 0.000000
vt 34.290000 0.000000 0.000000
vt 0.000000 5.080000 0.000000
vt 34.290000 5.080000 0.000000
vt 0.000000 0.000000 0.000000
vt 2.540000 0.000000 0.000000
vt 0.000000 5.080000 0.000000
vt 2.540000 5.080000 0.000000
vt -0.000000 0.000000 0.000000
vt 68.580000 0.000000 0.000000
vt -0.000000 5.080000 0.000000
vt 68.580000 5.080000 0.000000
vt -0.000000 0.000000 0.000000
vt 2.540000 0.000000 0.000000
vt -0.000000 5.080000 0.000000
vt 2.540000 5.080000 0.000000
vt 0.000000 0.000000 0.000000
vt 26.670000 0.000000 0.000000
vt 0.000000 5.080000 0.000000
vt 26.670000 5.080000 0.000000
vt 0.000000 0.000000 0.000000
vt 60.960000 0.000000 0.000000
vt 0.000000 5.080000 0.000000
vt 60.960000 5.080000 0.000000
vt 0.000000 0.000000 0.000000
vt 7.620000 0.000000 0.000000
vt 0.000000 5.080000 0.000000
vt 7.620000 5.080000 0.000000
vt 0.000000 0.000000 0.000000
vt 60.960000 0.000000 0.000000
vt 0.000000 5.080000 0.000000
vt 60.960000 5.080000 0.000000
vt 31.750000 0.000000 0.000000
vt -29.210000 7.620000 0.000000
vt -29.210000 0.000000 0.000000
vt -31.750000 34.290000 0.000000
vt -31.750000 -34.290000 0.000000
vt 31.750000 7.620000 0.000000
vt -29.210000 34.290000 0.000000
vt -29.210000 -34.290000 0.000000
vt -7.620000 -31.750000 0.000000
vt -0.000000 -31.750000 0.000000
vt -7.620000 29.210000 0.000000
vt -0.000000 29.210000 0.000000
vt -34.290000 31.750000 0.000000
vt 34.290000 31.750000 0.000000
vt 34.290000 29.210000 0.000000
vt -34.290000 29.210000 0.000000
vn 0.000000 -0.000000 100.000000
vn 0.000000 -0.000000 100.000000
vn 0.000000 -0.000000 100.000000
vn 0.000000 -0.000000 100.000000
vn -100.000000 0.000000 0.000000
vn -100.000000 0.000000 0.000000
vn -100.000000 0.000000 0.000000
vn -100.000000 0.000000 0.000000
vn 0.000000 0.000000 -100.000000
vn 0.000000 0.000000 -100.000000
vn 0.000000 0.000000 -100.000000
vn 0.000000 0.000000 -100.000000
vn 100.000000 0.000000 0.000000
vn 100.000000 0.000000 0.000000
vn 100.000000 0.000000 0.000000
vn 100.000000 0.000000 0.000000
vn 0.000000 -0.000000 100.000000
vn 0.000000 -0.000000 100.000000
vn 0.000000 -0.000000 100.000000
vn 0.000000 -0.000000 100.000000
vn 100.000000 -0.000000 0.000000
vn 100.000000 -0.000000 0.000000
vn 100.000000 -0.000000 0.000000
vn 100.000000 -0.000000 0.000000
vn 0.000000 -0.000000 100.000000
vn 0.000000 -0.000000 100.000000
vn 0.000000 -0.000000 100.000000
vn 0.000000 -0.000000 100.000000
vn -100.000000 0.000000 0.000000
vn -100.000000 0.000000 0.000000
vn -100.000000 0.000000 0.000000
vn -100.000000 0.000000 0.000000
vn 0.000000 100.000000 0.000000
vn 0.000000 100.000000 0.000000
vn 0.000000 100.000000 0.000000
vn 0.000000 100.000000 0.000000
vn 0.000000 100.000000 0.000000
vn 0.000000 100.000000 0.000000
vn 0.000000 100.000000 0.000000
vn 0.000000 100.000000 0.000000
vn 0.000000 -100.000000 0.000000
vn 0.000000 -100.000000 0.000000
vn 0.000000 -100.000000 0.000000
vn 0.000000 -100.000000 0.000000
vn 0.000000 -100.000000 0.000000
vn 0.000000 -100.000000 0.000000
vn 0.000000 -100.000000 0.000000
vn 0.000000 -100.000000 0.000000
usemtl Base_Material_-_Opaque_-_black
f 9/25/25 10/26/26 12/27/27
f 12/27/27 10/26/26 11/28/28
f 13/29/29 9/30/30 14/31/31
f 14/31/31 9/30/30 12/32/32
f 15/33/33 13/34/34 16/35/35
f 16/35/35 13/34/34 14/36/36
f 17/37/37 15/38/38 18/39/39
f 18/39/39 15/38/38 16/40/40
f 19/41/41 17/42/42 20/43/43
f 20/43/43 17/42/42 18/44/44
f 21/45/45 19/46/46 22/47/47
f 22/47/47 19/46/46 20/48/48
f 23/49/49 21/50/50 24/51/51
f 24/51/51 21/50/50 22/52/52
f 10/53/53 23/54/54 11/55/55
f 11/55/55 23/54/54 24/56/56
f 24/57/57 20/58/58 11/59/59
f 11/59/59 20/58/58 16/60/60
f 11/59/59 16/60/60 14/61/61
f 24/57/57 22/62/62 20/58/58
f 20/58/58 18/63/63 16/60/60
f 14/61/61 12/64/64 11/59/59
f 21/65/65 23/66/66 19/67/67
f 19/67/67 23/66/66 10/68/68
f 19/67/67 10/68/68 15/69/69
f 15/69/69 10/68/68 13/70/70
f 13/70/70 10/68/68 9/71/71
f 15/69/69 17/72/72 19/67/67
g leg_left

v 0.050800 1.981200 -0.647700
v 0.393700 1.981200 -0.647700
v 0.393700 2.032000 -0.647700
v 0.050800 2.032000 -0.647700
v 0.050800 1.981200 -0.673100
v 0.050800 2.032000 -0.673100
v 0.736600 1.981200 -0.673100
v 0.736600 2.032000 -0.673100
v 0.736600 1.981200 -0.647700
v 0.736600 2.032000 -0.647700
v 0.469900 1.981200 -0.647700
v 0.469900 2.032000 -0.647700
v 0.469900 1.981200 -0.038100
v 0.469900 2.032000 -0.038100
v 0.393700 1.981200 -0.038100
v 0.393700 2.032000 -0.038100
vt 0.000000 0.000000 0.000000
vt 34.290000 0.000000 0.000000
vt 0.000000 5.080000 0.000000
vt 34.290000 5.080000 0.000000
vt 0.000000 0.000000 0.000000
vt 2.540000 0.000000 0.000000
vt 0.000000 5.080000 0.000000
vt 2.540000 5.080000 0.000000
vt -0.000000 0.000000 0.000000
vt 68.580000 0.000000 0.000000
vt -0.000000 5.080000 0.000000
vt 68.580000 5.080000 0.000000
vt -0.000000 0.000000 0.000000
vt 2.540000 0.000000 0.000000
vt -0.000000 5.080000 0.000000
vt 2.540000 5.080000 0.000000
vt 0.000000 0.000000 0.000000
vt 26.670000 0.000000 0.000000
vt 0.000000 5.080000 0.000000
vt 26.670000 5.080000 0.000000
vt 0.000000 0.000000 0.000000
vt 60.960000 0.000000 0.000000
vt 0.000000 5.080000 0.000000
vt 60.960000 5.080000 0.000000
vt 0.000000 0.000000 0.000000
vt 7.620000 0.000000 0.000000
vt 0.000000 5.080000 0.000000
vt 7.620000 5.080000 0.000000
vt 0.000000 0.000000 0.000000
vt 60.960000 0.000000 0.000000
vt 0.000000 5.080000 0.000000
vt 60.960000 5.080000 0.000000
vt 31.750000 0.000000 0.000000
vt -29.210000 7.620000 0.000000
vt -29.210000 0.000000 0.000000
vt -31.750000 34.290000 0.000000
vt -31.750000 -34.290000 0.000000
vt 31.750000 7.620000 0.000000
vt -29.210000 34.290000 0.000000
vt -29.210000 -34.290000 0.000000
vt -7.620000 -31.750000 0.000000
vt -0.000000 -31.750000 0.000000
vt -7.620000 29.210000 0.000000
vt -0.000000 29.210000 0.000000
vt -34.290000 31.750000 0.000000
vt 34.290000 31.750000 0.000000
vt 34.290000 29.210000 0.000000
vt -34.290000 29.210000 0.000000
vn 0.000000 0.000000 100.000000
vn 0.000000 0.000000 100.000000
vn 0.000000 0.000000 100.000000
vn 0.000000 0.000000 100.000000
vn -100.000000 0.000000 0.000000
vn -100.000000 0.000000 0.000000
vn -100.000000 0.000000 0.000000
vn -100.000000 0.000000 0.000000
vn 0.000000 0.000000 -100.000000
vn 0.000000 0.000000 -100.000000
vn 0.000000 0.000000 -100.000000
vn 0.000000 0.000000 -100.000000
vn 100.000000 0.000000 0.000000
vn 100.000000 0.000000 0.000000
vn 100.000000 0.000000 0.000000
vn 100.000000 0.000000 0.000000
vn 0.000000 0.000000 100.000000
vn 0.000000 0.000000 100.000000
vn 0.000000 0.000000 100.000000
vn 0.000000 0.000000 100.000000
vn 100.000000 0.000000 0.000000
vn 100.000000 0.000000 0.000000
vn 100.000000 0.000000 0.000000
vn 100.000000 0.000000 0.000000
vn 0.000000 0.000000 100.000000
vn 0.000000 0.000000 100.000000
vn 0.000000 0.000000 100.000000
vn 0.000000 0.000000 100.000000
vn -100.000000 0.000000 0.000000
vn -100.000000 0.000000 0.000000
vn -100.000000 0.000000 0.000000
vn -100.000000 0.000000 0.000000
vn 0.000000 100.000000 0.000000
vn 0.000000 100.000000 0.000000
vn 0.000000 100.000000 0.000000
vn 0.000000 100.000000 0.000000
vn 0.000000 100.000000 0.000000
vn 0.000000 100.000000 0.000000
vn 0.000000 100.000000 0.000000
vn 0.000000 100.000000 0.000000
vn 0.000000 -100.000000 0.000000
vn 0.000000 -100.000000 0.000000
vn 0.000000 -100.000000 0.000000
vn 0.000000 -100.000000 0.000000
vn 0.000000 -100.000000 0.000000
vn 0.000000 -100.000000 0.000000
vn 0.000000 -100.000000 0.000000
vn 0.000000 -100.000000 0.000000
f 25/73/73 26/74/74 28/75/75
f 28/75/75 26/74/74 27/76/76
f 29/77/77 25/78/78 30/79/79
f 30/79/79 25/78/78 28/80/80
f 31/81/81 29/82/82 32/83/83
f 32/83/83 29/82/82 30/84/84
f 33/85/85 31/86/86 34/87/87
f 34/87/87 31/86/86 32/88/88
f 35/89/89 33/90/90 36/91/91
f 36/91/91 33/90/90 34/92/92
f 37/93/93 35/94/94 38/95/95
f 38/95/95 35/94/94 36/96/96
f 39/97/97 37/98/98 40/99/99
f 40/99/99 37/98/98 38/100/100
f 26/101/101 39/102/102 27/103/103
f 27/103/103 39/102/102 40/104/104
f 40/105/105 36/106/106 27/107/107
f 27/107/107 36/106/106 32/108/108
f 27/107/107 32/108/108 30/109/109
f 40/105/105 38/110/110 36/106/106
f 36/106/106 34/111/111 32/108/108
f 30/109/109 28/112/112 27/107/107
f 37/113/113 39/114/114 35/115/115
f 35/115/115 39/114/114 26/116/116
f 35/115/115 26/116/116 31/117/117
f 31/117/117 26/116/116 29/118/118
f 29/118/118 26/116/116 25/119/119
f 31/117/117 33/120/120 35/115/115
# 40 vertices
# 120 texture params
# 120 normals
# 68 facets

# 3 groups
