# WaveFront *.obj file (generated by Autodesk ATF)

mtllib leg_right_visual.mtl

g leg_right

v 5.080000 0.000000 -64.770000
v 39.370000 0.000000 -64.770000
v 39.370000 5.080000 -64.770000
v 5.080000 5.080000 -64.770000
v 5.080000 0.000000 -67.310000
v 5.080000 5.080000 -67.310000
v 73.660000 0.000000 -67.310000
v 73.660000 5.080000 -67.310000
v 73.660000 0.000000 -64.770000
v 73.660000 5.080000 -64.770000
v 46.990000 0.000000 -64.770000
v 46.990000 5.080000 -64.770000
v 46.990000 0.000000 -3.810000
v 46.990000 5.080000 -3.810000
v 39.370000 0.000000 -3.810000
v 39.370000 5.080000 -3.810000
vt 0.000000 0.000000 0.000000
vt 34.290000 0.000000 0.000000
vt 0.000000 5.080000 0.000000
vt 34.290000 5.080000 0.000000
vt 0.000000 0.000000 0.000000
vt 2.540000 0.000000 0.000000
vt 0.000000 5.080000 0.000000
vt 2.540000 5.080000 0.000000
vt -0.000000 0.000000 0.000000
vt 68.580000 0.000000 0.000000
vt -0.000000 5.080000 0.000000
vt 68.580000 5.080000 0.000000
vt -0.000000 0.000000 0.000000
vt 2.540000 0.000000 0.000000
vt -0.000000 5.080000 0.000000
vt 2.540000 5.080000 0.000000
vt 0.000000 0.000000 0.000000
vt 26.670000 0.000000 0.000000
vt 0.000000 5.080000 0.000000
vt 26.670000 5.080000 0.000000
vt 0.000000 0.000000 0.000000
vt 60.960000 0.000000 0.000000
vt 0.000000 5.080000 0.000000
vt 60.960000 5.080000 0.000000
vt 0.000000 0.000000 0.000000
vt 7.620000 0.000000 0.000000
vt 0.000000 5.080000 0.000000
vt 7.620000 5.080000 0.000000
vt 0.000000 0.000000 0.000000
vt 60.960000 0.000000 0.000000
vt 0.000000 5.080000 0.000000
vt 60.960000 5.080000 0.000000
vt 31.750000 0.000000 0.000000
vt -29.210000 7.620000 0.000000
vt -29.210000 0.000000 0.000000
vt -31.750000 34.290000 0.000000
vt -31.750000 -34.290000 0.000000
vt 31.750000 7.620000 0.000000
vt -29.210000 34.290000 0.000000
vt -29.210000 -34.290000 0.000000
vt -7.620000 -31.750000 0.000000
vt -0.000000 -31.750000 0.000000
vt -7.620000 29.210000 0.000000
vt -0.000000 29.210000 0.000000
vt -34.290000 31.750000 0.000000
vt 34.290000 31.750000 0.000000
vt 34.290000 29.210000 0.000000
vt -34.290000 29.210000 0.000000
vn 0.000000 -0.000000 1.000000
vn 0.000000 -0.000000 1.000000
vn 0.000000 -0.000000 1.000000
vn 0.000000 -0.000000 1.000000
vn -1.000000 0.000000 0.000000
vn -1.000000 0.000000 0.000000
vn -1.000000 0.000000 0.000000
vn -1.000000 0.000000 0.000000
vn 0.000000 0.000000 -1.000000
vn 0.000000 0.000000 -1.000000
vn 0.000000 0.000000 -1.000000
vn 0.000000 0.000000 -1.000000
vn 1.000000 0.000000 0.000000
vn 1.000000 0.000000 0.000000
vn 1.000000 0.000000 0.000000
vn 1.000000 0.000000 0.000000
vn 0.000000 -0.000000 1.000000
vn 0.000000 -0.000000 1.000000
vn 0.000000 -0.000000 1.000000
vn 0.000000 -0.000000 1.000000
vn 1.000000 -0.000000 0.000000
vn 1.000000 -0.000000 0.000000
vn 1.000000 -0.000000 0.000000
vn 1.000000 -0.000000 0.000000
vn 0.000000 -0.000000 1.000000
vn 0.000000 -0.000000 1.000000
vn 0.000000 -0.000000 1.000000
vn 0.000000 -0.000000 1.000000
vn -1.000000 0.000000 0.000000
vn -1.000000 0.000000 0.000000
vn -1.000000 0.000000 0.000000
vn -1.000000 0.000000 0.000000
vn 0.000000 1.000000 0.000000
vn 0.000000 1.000000 0.000000
vn 0.000000 1.000000 0.000000
vn 0.000000 1.000000 0.000000
vn 0.000000 1.000000 0.000000
vn 0.000000 1.000000 0.000000
vn 0.000000 1.000000 0.000000
vn 0.000000 1.000000 0.000000
vn -0.000000 -1.000000 -0.000000
vn -0.000000 -1.000000 -0.000000
vn -0.000000 -1.000000 -0.000000
vn -0.000000 -1.000000 -0.000000
vn -0.000000 -1.000000 -0.000000
vn -0.000000 -1.000000 -0.000000
vn -0.000000 -1.000000 -0.000000
vn -0.000000 -1.000000 -0.000000
usemtl Base_Material_-_Opaque_-_black
f 1/1/1 2/2/2 4/3/3
f 4/3/3 2/2/2 3/4/4
f 5/5/5 1/6/6 6/7/7
f 6/7/7 1/6/6 4/8/8
f 7/9/9 5/10/10 8/11/11
f 8/11/11 5/10/10 6/12/12
f 9/13/13 7/14/14 10/15/15
f 10/15/15 7/14/14 8/16/16
f 11/17/17 9/18/18 12/19/19
f 12/19/19 9/18/18 10/20/20
f 13/21/21 11/22/22 14/23/23
f 14/23/23 11/22/22 12/24/24
f 15/25/25 13/26/26 16/27/27
f 16/27/27 13/26/26 14/28/28
f 2/29/29 15/30/30 3/31/31
f 3/31/31 15/30/30 16/32/32
f 16/33/33 12/34/34 3/35/35
f 3/35/35 12/34/34 8/36/36
f 3/35/35 8/36/36 6/37/37
f 16/33/33 14/38/38 12/34/34
f 12/34/34 10/39/39 8/36/36
f 6/37/37 4/40/40 3/35/35
f 13/41/41 15/42/42 11/43/43
f 11/43/43 15/42/42 2/44/44
f 11/43/43 2/44/44 7/45/45
f 7/45/45 2/44/44 5/46/46
f 5/46/46 2/44/44 1/47/47
f 7/45/45 9/48/48 11/43/43
# 16 vertices
# 48 texture params
# 48 normals
# 28 facets

# 1 groups
