# WaveFront *.obj file (generated by Autodesk ATF)

mtllib tabletop_visual.mtl

g tabletop

v 76.200000 203.200000 0.000000
v 0.000000 203.200000 0.000000
v 0.000000 0.000000 0.000000
v 76.200000 0.000000 0.000000
v 0.000000 203.200000 -3.810000
v 76.200000 203.200000 -3.810000
v 76.200000 0.000000 -3.810000
v 0.000000 0.000000 -3.810000
vt 101.600000 38.100000 0.000000
vt -101.600000 38.100000 0.000000
vt 101.600000 -38.100000 0.000000
vt -101.600000 -38.100000 0.000000
vt -101.600000 -38.100000 0.000000
vt 101.600000 -38.100000 0.000000
vt -101.600000 38.100000 0.000000
vt 101.600000 38.100000 0.000000
vt -1.905000 -101.600000 0.000000
vt 1.905000 -101.600000 0.000000
vt -1.905000 101.600000 0.000000
vt 1.905000 101.600000 0.000000
vt 1.905000 38.100000 0.000000
vt -1.905000 38.100000 0.000000
vt 1.905000 -38.100000 0.000000
vt -1.905000 -38.100000 0.000000
vt 1.905000 101.600000 0.000000
vt -1.905000 101.600000 0.000000
vt 1.905000 -101.600000 0.000000
vt -1.905000 -101.600000 0.000000
vt -1.905000 -38.100000 0.000000
vt 1.905000 -38.100000 0.000000
vt -1.905000 38.100000 0.000000
vt 1.905000 38.100000 0.000000
vn 0.000000 0.000000 1.000000
vn 0.000000 0.000000 1.000000
vn 0.000000 0.000000 1.000000
vn 0.000000 0.000000 1.000000
vn -0.000000 -0.000000 -1.000000
vn -0.000000 -0.000000 -1.000000
vn -0.000000 -0.000000 -1.000000
vn -0.000000 -0.000000 -1.000000
vn 1.000000 -0.000000 -0.000000
vn 1.000000 -0.000000 -0.000000
vn 1.000000 -0.000000 -0.000000
vn 1.000000 -0.000000 -0.000000
vn -0.000000 -1.000000 -0.000000
vn -0.000000 -1.000000 -0.000000
vn -0.000000 -1.000000 -0.000000
vn -0.000000 -1.000000 -0.000000
vn -1.000000 -0.000000 -0.000000
vn -1.000000 -0.000000 -0.000000
vn -1.000000 -0.000000 -0.000000
vn -1.000000 -0.000000 -0.000000
vn -0.000000 1.000000 -0.000000
vn -0.000000 1.000000 -0.000000
vn -0.000000 1.000000 -0.000000
vn -0.000000 1.000000 -0.000000
usemtl Base_Material_-_Opaque_-_wood_brown
f 2/1/1 3/2/2 1/3/3
f 1/3/3 3/2/2 4/4/4
f 6/5/5 7/6/6 5/7/7
f 5/7/7 7/6/6 8/8/8
f 4/9/9 7/10/10 1/11/11
f 1/11/11 7/10/10 6/12/12
f 3/13/13 8/14/14 4/15/15
f 4/15/15 8/14/14 7/16/16
f 2/17/17 5/18/18 3/19/19
f 3/19/19 5/18/18 8/20/20
f 1/21/21 6/22/22 2/23/23
f 2/23/23 6/22/22 5/24/24
# 8 vertices
# 24 texture params
# 24 normals
# 12 facets

# 1 groups
